<svg class="svg" xmlns="http://www.w3.org/2000/svg" version="1.1" xmlns:xlink="http://www.w3.org/1999/xlink" xmlns:svgjs="http://svgjs.dev/svgjs" style="overflow: hidden;" viewBox="0 0 1920 1080">
		<style type="text/css">
			:root{
				--animation-timer : 10s;
				--animation-bezier : linear;
			}

			.wave2{
				animation: wave var(--animation-timer) alternate var(--animation-bezier) infinite;
			}
			.wave3{
				animation: wave var(--animation-timer) alternate var(--animation-bezier) infinite;
				animation-delay: .9s;
			}
			.wave4{
				animation: wave var(--animation-timer) alternate var(--animation-bezier) infinite;
				animation-delay: 1.3s;

			}
			.wave5{
				animation: wave var(--animation-timer) alternate var(--animation-bezier) infinite;
				animation-delay: .6s;

			}

			@keyframes wave{
				from{
					transform:translateY(0%);
				}
				to{
					transform:translateY(35%);
				}
			}
		</style>
		<rect class="try-1" width="1920" height="1080" fill="#22194d"></rect>
		<g clip-path="url(&quot;#SvgjsClipPath2118&quot;)">
			<g class="test" transform="matrix(-0.06018634967938516,1.14842396496776,-1.14842396496776,-0.06018634967938516,1614.7016978734869,-504.8271642246316)">
				<path d="M0,-1080C-7.2347079685545,-981.726869950861,-48.32326239861403,-715.0113776817377,-43.408247811327,-490.3612197051662C-38.493233224039976,-265.7110617285947,14.898306392726056,40.41980432271964,29.490087523722167,267.90094785942915C44.08186865471828,495.38209139613866,46.84994218308173,678.2356809725028,44.142438974649664,874.5256415150909C41.4349357662176,1070.815602057679,20.6021414355714,1231.3949847008062,13.245068273129789,1445.6407111149576C5.887995110688178,1659.8864375291091,2.207511378854965,2040.9401185191596,0,2160L 1920 2160 L 1920 -1080 Z" fill="url(&quot;#SvgjsLinearGradient2111&quot;)"></path>
				<path d="M274.2857142857143,-1080C275.5892541728688,-1014.5157463863034,275.31230125535285,-829.2631489657402,282.1069536086411,-687.09447831782C288.90160596192936,-544.9258076698997,316.1425118785137,-356.55568066473313,315.053628405444,-226.98797611247798C313.9647449323743,-97.42027156022283,290.03691111429464,-43.7068003146172,275.573652770223,90.31174899571107C261.1103944261514,224.33029830603934,223.34090557566248,431.90102115618856,228.2740783410143,577.1233197494915C233.20725110636613,722.3456183427945,298.45087828043046,822.6090354398334,305.172689362334,961.6455405555288C311.8945004442375,1100.6820456712242,273.42954157166184,1289.93911927823,268.6049448324353,1411.3423504436637C263.7803480932088,1532.7455816090974,275.27831401809476,1565.2886526220748,276.2251089269746,1690.0649275481308C277.17190383585444,1814.8412024741867,274.60894672592434,2081.6774879246886,274.2857142857143,2160L 1920 2160 L 1920 -1080 Z" fill="url(&quot;#SvgjsLinearGradient2112&quot;)"></path>
				<path class="wave2" d="M548.5714285714286,-1080C539.8579228587727,-1010.7855545755051,504.17287679822493,-822.7464027491127,496.29039429549306,-664.713327453031C488.4079117927612,-506.6802521569492,486.4959459319817,-298.9910969016112,501.2765335550375,-131.80154822350949C516.0571211780933,35.3880004545922,575.6867628157588,179.92224494615738,584.9739200338279,338.4239646155792C594.261077251897,496.92568428500107,568.862587968034,671.120481900637,556.9994768634517,819.2087697930216C545.1363657588695,967.2970576854062,504.26557032835564,1086.4466420589824,513.7952534063347,1226.9536919698874C523.3249364843139,1367.4607418807923,608.3815461371439,1506.7433512534326,614.1775753313262,1662.2510692584513C619.9736045255086,1817.75878726347,559.5057863647448,2077.0418448764085,548.5714285714286,2160L 1920 2160 L 1920 -1080 Z" fill="url(&quot;#SvgjsLinearGradient2113&quot;)"></path>
				<path class="wave3" d="M822.8571428571428,-1080C819.9280689183015,-996.3121957981167,810.1913409518048,-754.6315411605069,805.2826992240953,-577.8731747887005C800.3740574963857,-401.114808416894,788.7961426659411,-212.15265012388397,793.4052924908856,-19.449801769161454C798.01444231583,173.25304658556104,833.3301742397747,399.6363922862255,832.9375981737617,578.3439153396346C832.5450221077487,757.0514383930437,784.8644464041108,881.0252605539268,791.0498360948072,1052.7953365512933C797.2352257855036,1224.5654125486599,864.7487185242179,1424.430260749049,870.0499363179405,1608.9643713238333C875.351154111663,1793.4984818986177,830.7226084339424,2068.160728553972,822.8571428571428,2160L 1920 2160 L 1920 -1080 Z" fill="url(&quot;#SvgjsLinearGradient2114&quot;)"></path>
				<path class="wave4" d="M1097.142857142857,-1080C1101.8628055193865,-1016.7630386330576,1122.9001669116403,-847.0753142450988,1125.4625474020338,-700.5782317983453C1128.0249278924273,-554.0811493515919,1109.4054709613874,-337.34800500749765,1112.5171400852178,-201.0175053194791C1115.628809209048,-64.68700563146058,1149.5411447630142,-12.311385524601121,1144.132562145015,117.40476632976586C1138.723979527016,247.12091818413285,1086.7369268934813,429.7772783952035,1080.065644377223,577.2794058067227C1073.3943618609646,724.781533218242,1104.8708443030143,882.3188659964803,1104.1048670474645,1002.4175307988811C1103.3388897919147,1122.5161956012819,1069.630648325237,1181.0675907514917,1075.469780843924,1297.8713946211271C1081.3089133626108,1414.6751984907626,1135.52748277643,1559.5522531202146,1139.1396621595854,1703.2403540166933C1142.751841542741,1846.9284549131721,1104.1423246456452,2083.8733923361156,1097.142857142857,2160L 1920 2160 L 1920 -1080 Z" fill="url(&quot;#SvgjsLinearGradient2115&quot;)"></path>
				<path class="wave5" d="M1371.4285714285716,-1080C1365.5498179325562,-987.4298497400605,1338.271379812684,-694.7388273262858,1336.1560504524793,-524.5790984403627C1334.0407210922747,-354.41936955443964,1352.9051218593272,-241.31993769910838,1358.7365952673438,-59.04162668446128C1364.5680686753603,123.23668433018582,1369.9978258318574,375.69345626927975,1371.1448909005787,569.0907676475199C1372.2919559693,762.48807902576,1356.0591744618098,932.5996699372497,1365.618985679672,1101.3422415849795C1375.1787968975343,1270.0848132327094,1427.5354939162694,1405.103237798062,1428.5037582077525,1581.5461975338987C1429.4720224992357,1757.9891572697354,1380.941102558435,2063.5910329223166,1371.4285714285716,2160L 1920 2160 L 1920 -1080 Z" fill="url(&quot;#SvgjsLinearGradient2116&quot;)"></path>
				<path d="M1645.7142857142856,-1080C1654.4396756897377,-969.1711936332731,1701.6645295472924,-640.4796316727096,1698.0666255669985,-415.0271617996383C1694.4687215867045,-189.57469192656697,1627.5944406148392,65.32713592922164,1624.1268618325216,272.71481923842794C1620.659283050204,480.10250254763423,1673.4559462312275,629.3554387150461,1677.2611528730924,829.2989380555994C1681.0663595149574,1029.2424373961526,1652.2159128768462,1250.5923049576804,1646.9581016837117,1472.3758152817472C1641.7002904905771,1694.159325605814,1645.9215883758566,2045.3959692136245,1645.7142857142856,2160L 1920 2160 L 1920 -1080 Z" fill="url(&quot;#SvgjsLinearGradient2117&quot;)"></path>
			</g>
		</g>
		<defs>
			<linearGradient x1="0.1" y1="0" x2="0" y2="1" id="SvgjsLinearGradient2111">
				<stop stop-color="#22194d" offset="0"></stop>
				<stop stop-color="#19194d" offset="0"></stop>
			</linearGradient>
			<linearGradient x1="0.1" y1="0" x2="0" y2="1" id="SvgjsLinearGradient2112">
				<stop stop-color="#37297d" offset="0"></stop>
				<stop stop-color="#29297d" offset="0.14285714285714285"></stop>
			</linearGradient>
			<linearGradient x1="0.1" y1="0" x2="0" y2="1" id="SvgjsLinearGradient2113">
				<stop stop-color="#4c38ac" offset="0"></stop>
				<stop stop-color="#3938ac" offset="0.2857142857142857"></stop>
			</linearGradient>
			<linearGradient x1="0.1" y1="0" x2="0" y2="1" id="SvgjsLinearGradient2114">
				<stop stop-color="#6d5ac9" offset="0"></stop>
				<stop stop-color="#5a5ac9" offset="0.42857142857142855"></stop>
			</linearGradient>
			<linearGradient x1="0.1" y1="0" x2="0" y2="1" id="SvgjsLinearGradient2115">
				<stop stop-color="#988ad9" offset="0"></stop>
				<stop stop-color="#8b8ad9" offset="0.5714285714285714"></stop>
			</linearGradient>
			<linearGradient x1="0.1" y1="0" x2="0" y2="1" id="SvgjsLinearGradient2116">
				<stop stop-color="#c2bae9" offset="0"></stop>
				<stop stop-color="#babae9" offset="0.7142857142857143"></stop>
			</linearGradient>
			<linearGradient x1="0.1" y1="0" x2="0" y2="1" id="SvgjsLinearGradient2117">
				<stop stop-color="#ece9f8" offset="0"></stop>
				<stop stop-color="#e9e9f8" offset="0.8571428571428571"></stop>
			</linearGradient>
			<clipPath id="SvgjsClipPath2118">
				<rect width="1920" height="1080"></rect>
			</clipPath>
		</defs>
	</svg>